<?xml version="1.0" encoding="UTF-8"?>
<svg id="Layer_1" xmlns="http://www.w3.org/2000/svg" viewBox="0 0 1920 1080">
  <defs>
    <style>
      .cls-1 {
        fill: #fff;
      }
    </style>
  </defs>
  <rect width="1920" height="1080"/>
  <g>
    <path class="cls-1" d="M587.2,557.97c13.4-24.1,28-47.4,42.9-70.7,34.2-53,30-49.6,36.4-47.6,1.3.6,1.6,1.1,1.5,2.3-1.3,5.2-3.3,9.3-4.8,14.1-5.4,15.4-10.3,30.5-14.6,46.1-2.9,11.1-5.7,24.6-1.9,32.8.8,1.5,1.7,3.6,3.5,3.4,9.9-3.1,21.2-15.8,25.1-19.5,29-31.8,44.9-54.5,75.5-79.6,6.4-5.2,11.7-9.4,15.4-10.1,10.5-.7,9,6.5,8.5,9.5-3.8,22.1-29.2,69.4-33,78.21-6.7,13.7-12.4,27.8-18.9,41.6-17.1,38.4,6.2-27.2,8.4-32.5,3.8-10.4,8.2-20.6,13-30.6,4.5-9,28.5-59,23.5-61.8-45.9,32.7-74.1,80.71-100.71,101.01-14.2,12.4-28.7,7.6-28.4-12,1.4-21.9,11.3-43.4,17.1-64.3-23.7,36.2-47.6,72.6-68.9,110.31-.1,1.6,4.3-4.6,5.6-3.3-6.8,9.8-10.4,19.6-15.6,13.7,1.4-7.7,6.7-14.1,10.4-21Z"/>
    <path class="cls-1" d="M798.8,539.77c0-4.8,3.6-10.9,6.3-14.1-.1-1.7-.2-3.6.1-5,.6-2.6,2.9-4.5,7.6-4.2.8-.7,1.4-1.5,1.9-2.3,1-1.3,1-2.6-1.4-2.3-8.4.9-30.8,5.2-33.6,8.5.3.5.5.8.5,1.1,0,1.1-2.6,1.7-4.2,3.5,1.9,2.3,3.2,5.8,3.2,7.9,0,6.7-6.3,12.1-10.6,12.1-3,0-7.1-2-7.6-6.5-.6-5.3,3.8-11.9,7.6-15.9,2.3-2.6,4.8-4.3,6.7-3.6,8.8-5.6,38.3-9.7,41.4-9.7,4.2,0,5,1.6,5,3.2,0,1.7-1.5,4.7-2.6,6.2,2.4,2.5,3.6,6.6,2.8,10.7,9.3.5,22.2-3.5,27.3-6.7.8-.2.8.4-.1,1.1-9.5,7-22.7,8.9-28,8.9-2.3,5.1-8.2,14-14.3,14-3.4,0-8-1.1-8-6.9ZM776,532.07c0-2.3-1.4-4.9-1.7-4.8-4,3.7-6.2,8.5-6.4,13.7-.1,1.3.2,1.6.6,1.6,2,0,7.5-3.7,7.5-10.5ZM817.31,531.97c-2-.3-4.6-.9-6.7-1.9-2.7,4.1-4.2,8.9-4.6,11.6-.3,2.6-.2,4.1,3.4,1.3,3.1-2.5,5.7-6.1,7.9-11ZM817.21,520.67c-1,1.1-3.4,4.8-4.4,6.6,1.4.7,3.9,1.4,5.6,1.6.6-2.7.1-6.7-1.2-8.2Z"/>
    <path class="cls-1" d="M838.6,550.07c-2.5-.9-3.6-3.1-3.6-6,0-6.8,6.3-17.4,14.6-21.6,2.2-1.1,4.1-1.6,5.8-1.6,2.7,0,5.2,1.3,8.8,3.3,2.9-2.6,5.2-6.1,8-9,3.5-4.3,7.7-7.9,10.8-12.5,2.3-5,4.5-9.9,7-14.7,1.5-3.9,22.8-39,31.7-39,1.3,0,2.3.7,3,2.4.6,3.7-10.9,20.6-17.1,27.9-5.1,6.9-11.7,12.8-15.9,20.3-2.4,4.3-8.8,19.7-8.8,30.2,0,5.3,1.6,9.5,6.2,10.1,3.5.5,13.4-3.3,25.2-10.6v.3c-2.6,3.5-14.4,12.6-23,12.6-10.7,0-15.1-7.2-15.1-15.7,0-4.2,1.1-9,3-14-11.5,12-20.1,26.7-33,37.2-1.2.8-2.5,1.2-3.9,1.2-1.3,0-2.6-.3-3.7-.8ZM861,528.17c.8-.6-1.9-4.4-4.6-3.7-5.8,1.6-15.6,14.5-14.7,22.8,3.6-.7,14.1-12.2,19.3-19.1ZM921.31,452.27c-2.1-.3-15.2,19.4-19.3,25.8-2,3.2-4.1,6.7-6.3,11.2,9.5-12.1,19.9-23.1,25.6-37Z"/>
    <path class="cls-1" d="M941.7,557.97c13.4-24.1,28-47.4,42.9-70.7,34.2-53,30-49.6,36.4-47.6,1.3.6,1.6,1.1,1.5,2.3-1.3,5.2-3.3,9.3-4.8,14.1-5.4,15.4-10.3,30.5-14.6,46.1-2.9,11.1-5.7,24.6-1.9,32.8.8,1.5,1.7,3.6,3.5,3.4,9.9-3.1,21.2-15.8,25.1-19.5,29-31.8,44.9-54.5,75.5-79.6,6.4-5.2,11.7-9.4,15.4-10.1,10.5-.7,9,6.5,8.5,9.5-3.8,22.1-29.2,69.4-33,78.21-6.7,13.7-12.4,27.8-18.9,41.6-17.1,38.4,6.2-27.2,8.4-32.5,3.8-10.4,8.2-20.6,13-30.6,4.5-9,28.5-59,23.5-61.8-45.9,32.7-74.1,80.71-100.71,101.01-14.2,12.4-28.7,7.6-28.4-12,1.4-21.9,11.3-43.4,17.1-64.3-23.7,36.2-47.6,72.6-68.9,110.31-.1,1.6,4.3-4.6,5.6-3.3-6.8,9.8-10.4,19.6-15.6,13.7,1.4-7.7,6.7-14.1,10.4-21Z"/>
    <path class="cls-1" d="M1114.5,546.97c-1.4-.8-1.9-2.4-1.9-4.2,0-5.5,9.5-20.1,12.5-24,1.3-1.7,5.6-1.3,6.9-.1.6.5.6,1,.3,1.6-.6.8-1.1,1.6-1.6,2.3-4.7,6.3-10,14.6-11.8,19.7-.9,2.5,0,2.8,1.9,1.7,5.7-3.4,14.9-12.9,19.5-18,.5-.6,1.6-2.3,2-3,.7-1,1.5-1.3,2.6-1,2.7.9,3.3,1.4,3.3,2.4,0,.4-.1,1-.3,1.6-1.7,5.4-3.7,9.3-3.7,15,0,1.5.7,3,2.5,3,4.8,0,27-14.9,33.6-20.3.3-.2.9-.8,1.1-.5.1.1.1.2.1.2,0,.4-.6.7-.9.9-8,7.4-16.2,14.5-25.6,20.2-1.2.8-2.5,1.5-3.8,2-1.3.5-2.6.7-3.8.7-2.7,0-6.6-2-7.9-3.7-1.3-1.7-1.9-2.9-1.9-5.9,0-1.4.5-2.9.6-4.5-1.3,1.3-15.7,15.1-19.8,15.1-1.3,0-2.6-.4-3.9-1.2Z"/>
    <path class="cls-1" d="M1168.6,552.27c0-.6.1-1.4.9-2.1,14-11.4,32.8-28.1,38.5-36.1-10.5,1.9-26.9,12.1-32.9,16.7-1,.8-3-2.3-3-3.5,0-3.1,27.7-15,35.4-15,1.5,0,5.7,1,5.7,3.1,0,1.9-2.7,4.2-5.7,7.3-9.8,10-20.8,19-30.7,28.8,21.1-6,45.9-14.7,54.1-14.7,1.2,0,2.1.2,2.5.7-5.9-.2-10.9,2.9-16.3,4.5-14.4,5-36.5,13.9-41.1,13.9-2.6,0-7.4-1-7.4-3.6Z"/>
    <path class="cls-1" d="M1229.9,536.97c.9-5,3.1-9.4,6.4-13.4,1.3-1.7,5.6-1.3,6.9-.1.6.5.6,1,.3,1.6-.6.8-1.1,1.6-1.6,2.3-2.1,3.1-3.8,6.3-5,9.8-.5,1.5-.8,3.1-.6,4.7.3,2.4,1.4,3,3.8,2.9,5.3-.3,26.5-11,35.9-17,.6-.4,1.2-.9,1.8-1.2.4-.3.6-1,1.3-.7-.3.3-.5.7-.9,1-2,2-4.3,3.5-6.6,5.1-7.2,4.6-14.7,9.5-22.3,13.2-2.8,1.3-5.6,2.6-8.7,2.5-4.8-.1-12-3.2-10.7-10.7ZM1241.8,514.57c2-3.4,4.5-9.8,5.4-14.7.3-1.2.6-1.7,1.9-1.4,1.8.4,4,2.3,3.7,5.1-.2,2.7-5.4,9.5-9.5,11.7-1.5.7-2.3.7-1.5-.7Z"/>
    <path class="cls-1" d="M1267.2,546.57c-.2-3.3.4-6.4,1.7-10.2,2.6-6.6,6.1-12.7,9.9-18.6,8.7-13.5,18.3-25.8,29.9-37,4.6-4.5,8.6-7.8,14.2-10.9,1-.6,2.1-.9,3.2-.6,1.4.3.8,2-.7,4.3-2.2,3.5-5.1,6.4-7.9,9-1.1.9-2.4,1.9-3.5,2.7-1.1.8-2.1.6-3.6-.3-16.9,17.4-29.8,37-36,56.1-1.1,3.3-1,5.3,2.6,1.4,6.6-6.8,25.9-26.5,36-26.5,2,0,3.7.2,5.3,1.3.3.1.6.4.5.7-.1.4-.4.5-.7.6-1.6.5-3.2.9-4.8,1.4-6.9,2.1-12.4,6.7-18.3,10.8,1.6,5,6.8,15.1,14.4,15.1,7,0,18.3-6.6,24.9-11.7.8-.6,1.7-1.4,2.6-2.1.2-.1.3-.2.5-.1.3.2,0,.4,0,.5-.5,1.2-1.3,2.2-2.1,3.1-1.8,2.1-4.1,3.9-6.4,5.5-5.8,3.7-13.2,7.2-19,7.2-5.5,0-10.2-2.3-14.3-7-1.8-2-3.5-4.2-4.8-6.6-3.8,3.3-7.1,7.1-10.6,10.8-1.5,1.6-3,3.1-4.8,4.4-2.2,1.6-8,0-8.2-3.3Z"/>
  </g>
</svg>