
<svg>
<path d="M690.39,117.45c-.2-3.3.4-6.4,1.7-10.2,2.6-6.6,6.1-12.7,9.9-18.6,8.7-13.5,18.3-25.8,29.9-37,4.6-4.5,8.6-7.8,14.2-10.9,1-.6,2.1-.9,3.2-.6,1.4.3.8,2-.7,4.3-2.2,3.5-5.1,6.4-7.9,9-1.1.9-2.4,1.9-3.5,2.7-1.1.8-2.1.6-3.6-.3-16.9,17.4-29.8,37-36,56.1-1.1,3.3-1,5.3,2.6,1.4,6.6-6.8,25.9-26.5,36-26.5,2,0,3.7.2,5.3,1.3.3.1.6.4.5.7-.1.4-.4.5-.7.6-1.6.5-3.2.9-4.8,1.4-6.9,2.1-12.4,6.7-18.3,10.8,1.6,5,6.8,15.1,14.4,15.1,7,0,18.3-6.6,24.9-11.7.8-.6,1.7-1.4,2.6-2.1.2-.1.3-.2.5-.1.3.2,0,.4,0,.5-.5,1.2-1.3,2.2-2.1,3.1-1.8,2.1-4.1,3.9-6.4,5.5-5.8,3.7-13.2,7.2-19,7.2-5.5,0-10.2-2.3-14.3-7-1.8-2-3.5-4.2-4.8-6.6-3.8,3.3-7.1,7.1-10.6,10.8-1.5,1.6-3,3.1-4.8,4.4-2.2,1.6-8,0-8.2-3.3Z" fill="#fff"/>
</svg>